HIERARCHY
ROOT Hips
{
	OFFSET 0.000000 0.000000 0.000000
	CHANNELS 6 Xposition Yposition Zposition Xrotation Yrotation Zrotation
	JOINT LeftUpLeg_virtual
	{
		OFFSET 0.000000 0.000000 0.000000
		CHANNELS 3 Xrotation Yrotation Zrotation
		JOINT LeftUpLeg
		{
			OFFSET 13.026900 -6.336304 -1.092800
			CHANNELS 3 Xrotation Yrotation Zrotation
			JOINT LeftLeg
			{
				OFFSET 0.524474 -46.096886 9.782700
				CHANNELS 3 Xrotation Yrotation Zrotation
				JOINT LeftFoot
				{
					OFFSET -0.524474 -53.427422 -12.948200
					CHANNELS 3 Xrotation Yrotation Zrotation
					JOINT LeftToeBase
					{
						OFFSET 0.192200 -14.009700 16.364100
						CHANNELS 3 Xrotation Yrotation Zrotation
						JOINT LeftToe_End
						{
							OFFSET -1.784700 -0.561700 9.474800
							CHANNELS 3 Xrotation Yrotation Zrotation
							End Site
							{
								OFFSET 0 0 0
							}
						}
					}
				}
			}
		}
	}
	JOINT RightUpLeg_virtual
	{
		OFFSET 0.000000 0.000000 0.000000
		CHANNELS 3 Xrotation Yrotation Zrotation
		JOINT RightUpLeg
		{
			OFFSET -12.883000 -6.336304 -1.092800
			CHANNELS 3 Xrotation Yrotation Zrotation
			JOINT RightLeg
			{
				OFFSET -0.524587 -46.096825 9.782800
				CHANNELS 3 Xrotation Yrotation Zrotation
				JOINT RightFoot
				{
					OFFSET 0.524587 -53.427383 -12.948300
					CHANNELS 3 Xrotation Yrotation Zrotation
					JOINT RightToeBase
					{
						OFFSET -0.192200 -14.009700 16.364100
						CHANNELS 3 Xrotation Yrotation Zrotation
						JOINT RightToe_End
						{
							OFFSET 1.784700 -0.561700 9.474800
							CHANNELS 3 Xrotation Yrotation Zrotation
							End Site
							{
								OFFSET 0 0 0
							}
						}
					}
				}
			}
		}
	}
	JOINT Spine_virtual
	{
		OFFSET 0.000000 0.000000 0.000000
		CHANNELS 3 Xrotation Yrotation Zrotation
		JOINT Spine
		{
			OFFSET 0.072000 7.257294 -0.789700
			CHANNELS 3 Xrotation Yrotation Zrotation
			JOINT Spine1
			{
				OFFSET 0.000000 12.508769 -0.658067
				CHANNELS 3 Xrotation Yrotation Zrotation
				JOINT Spine1_split
				{
					OFFSET 0.000000 12.508769 -0.658067
					CHANNELS 3 Xrotation Yrotation Zrotation
					JOINT Spine2
					{
						OFFSET 0.000000 12.508769 -0.658067
						CHANNELS 3 Xrotation Yrotation Zrotation
						JOINT Neck_virtual
						{
							OFFSET 0.000000 0.000000 0.000000
							CHANNELS 3 Xrotation Yrotation Zrotation
							JOINT Neck
							{
								OFFSET 0.000000 14.033295 7.520400
								CHANNELS 3 Xrotation Yrotation Zrotation
								JOINT Head
								{
									OFFSET 0.000000 8.198502 5.703100
									CHANNELS 3 Xrotation Yrotation Zrotation
									JOINT HeadTop_End
									{
										OFFSET 0.000000 17.760803 13.332701
										CHANNELS 3 Xrotation Yrotation Zrotation
										End Site
										{
											OFFSET 0 0 0
										}
									}
								}
							}
						}
						JOINT LeftShoulder_virtual
						{
							OFFSET 0.000000 0.000000 0.000000
							CHANNELS 3 Xrotation Yrotation Zrotation
							JOINT LeftShoulder
							{
								OFFSET 6.292450 5.785301 -0.669000
								CHANNELS 3 Xrotation Yrotation Zrotation
								JOINT LeftShoulder_split
								{
									OFFSET 6.292450 5.785301 -0.669000
									CHANNELS 3 Xrotation Yrotation Zrotation
									JOINT LeftArm
									{
										OFFSET 13.907140 -6.093903 1.965100
										CHANNELS 3 Xrotation Yrotation Zrotation
										JOINT LeftForeArm
										{
											OFFSET 34.140198 0.000000 0.000000
											CHANNELS 3 Xrotation Yrotation Zrotation
											JOINT LeftHand
											{
												OFFSET 40.960209 0.000000 0.000000
												CHANNELS 3 Xrotation Yrotation Zrotation
												End Site
												{
													OFFSET 0 0 0
												}
											}
										}
									}
								}
							}
						}
						JOINT RightShoulder_virtual
						{
							OFFSET 0.000000 0.000000 0.000000
							CHANNELS 3 Xrotation Yrotation Zrotation
							JOINT RightShoulder
							{
								OFFSET -6.292450 5.785301 -0.669000
								CHANNELS 3 Xrotation Yrotation Zrotation
								JOINT RightShoulder_split
								{
									OFFSET -6.292450 5.785301 -0.669000
									CHANNELS 3 Xrotation Yrotation Zrotation
									JOINT RightArm
									{
										OFFSET -13.907140 -6.093903 1.965100
										CHANNELS 3 Xrotation Yrotation Zrotation
										JOINT RightForeArm
										{
											OFFSET -34.140198 0.000000 0.000000
											CHANNELS 3 Xrotation Yrotation Zrotation
											JOINT RightHand
											{
												OFFSET -40.960209 0.000000 0.000000
												CHANNELS 3 Xrotation Yrotation Zrotation
												End Site
												{
													OFFSET 0 0 0
												}
											}
										}
									}
								}
							}
						}
					}
				}
			}
		}
	}
}
MOTION
Frames: 4
Frame Time: 0.03333333
-0.384567 134.610275 5.536732 0.000000 0.000000 0.000000 -87.433368 -6.443996 -0.864430 -1.199334 22.532874 12.275633 -3.833561 0.421383 3.605577 16.089680 26.482249 -18.757098 -3.324739 -0.143750 0.201866 0.000000 0.000000 0.000000 -89.704126 -3.272139 0.863026 -4.579092 -23.601568 -15.136440 0.368589 -2.690772 -4.178545 27.705027 -29.145169 28.055133 -10.811593 0.284739 -1.730705 0.000000 0.000000 0.000000 -87.263849 -6.865678 -2.739081 0.906243 -0.478807 0.033993 -1.217350 0.270774 -0.221370 0.714403 0.785956 -0.327131 0.000000 0.000000 0.000000 -1.324189 0.351659 -0.244486 -6.185699 3.946184 -8.401441 5.786481 8.623205 -12.946158 0.000000 0.000000 0.000000 -0.380895 0.373199 -0.098739 0.470542 -6.013303 -0.823687 -0.350104 1.760975 -2.782596 44.246266 -42.113410 -32.581382 5.596581 -86.378957 5.005032 0.000000 0.000000 0.000000 -0.208535 0.666304 -0.486827 0.422299 0.652491 2.621449 7.500091 7.881588 -0.966255 -4.735833 1.805370 81.024977 -179.281319 54.969875 -179.821614 0.000000 0.000000 0.000000 
-0.365867 134.597321 5.526691 0.000000 0.000000 0.000000 -87.448934 -6.467497 -0.860000 -1.171983 22.487711 12.248666 -3.834317 0.389890 3.603784 16.106947 26.472558 -18.759673 -3.334346 -0.145455 0.191900 0.000000 0.000000 0.000000 -89.702855 -3.277767 0.881958 -4.616801 -23.601430 -15.155039 0.403334 -2.707932 -4.194743 27.707704 -29.177766 28.058226 -10.758257 0.285192 -1.735617 0.000000 0.000000 0.000000 -87.280549 -6.876561 -2.738053 0.911390 -0.480358 0.046317 -1.220219 0.273453 -0.221006 0.721529 0.781510 -0.318121 0.000000 0.000000 0.000000 -1.332596 0.359442 -0.249833 -6.165335 3.996618 -8.401867 6.356330 8.781513 -13.319028 0.000000 0.000000 0.000000 -0.369417 0.369629 -0.096823 0.460390 -6.035271 -0.873889 -0.351882 1.772435 -2.682337 44.205681 -42.120872 -32.661698 5.514249 -86.349014 4.929749 0.000000 0.000000 0.000000 -0.200640 0.670441 -0.487958 0.428925 0.662500 2.643812 7.496834 7.895692 -0.972803 -4.697210 1.784875 80.930099 -179.278423 54.907337 -179.812175 0.000000 0.000000 0.000000 
-0.345693 134.578476 5.510323 0.000000 0.000000 0.000000 -87.461358 -6.497153 -0.861661 -1.155600 22.437171 12.221503 -3.828153 0.356505 3.603397 16.119812 26.462188 -18.763208 -3.343277 -0.147609 0.182217 0.000000 0.000000 0.000000 -89.699898 -3.294940 0.891405 -4.660986 -23.604975 -15.170405 0.428625 -2.725035 -4.209813 27.704931 -29.211080 28.056033 -10.706895 0.284862 -1.738705 0.000000 0.000000 0.000000 -87.292092 -6.893578 -2.737120 0.909976 -0.479067 0.063284 -1.226277 0.280118 -0.221268 0.727962 0.794473 -0.297636 0.000000 0.000000 0.000000 -1.348732 0.368824 -0.253660 -6.139573 4.068936 -8.414067 7.111374 8.968490 -13.824134 0.000000 0.000000 0.000000 -0.360956 0.369245 -0.091700 0.446001 -6.041514 -0.934043 -0.348229 1.773905 -2.589477 44.186198 -42.136489 -32.689664 5.335883 -86.325388 4.757492 0.000000 0.000000 0.000000 -0.195235 0.675159 -0.492460 0.431487 0.629273 2.654760 7.516885 7.929967 -0.973358 -4.655816 1.764984 80.842782 -179.266361 54.831304 -179.818595 0.000000 0.000000 0.000000 
-0.325911 134.557190 5.486862 0.000000 0.000000 0.000000 -87.469090 -6.528922 -0.869471 -1.152078 22.385467 12.196976 -3.817606 0.321758 3.604345 16.128452 26.451349 -18.770062 -3.351720 -0.150057 0.173464 0.000000 0.000000 0.000000 -89.693744 -3.319435 0.891713 -4.706699 -23.613938 -15.181595 0.437015 -2.741358 -4.222237 27.699805 -29.239452 28.050994 -10.660900 0.283926 -1.740789 0.000000 0.000000 0.000000 -87.296566 -6.915926 -2.739083 0.901571 -0.476648 0.084027 -1.234094 0.287630 -0.221507 0.727086 0.816380 -0.277225 0.000000 0.000000 0.000000 -1.370041 0.378043 -0.255003 -6.126832 4.153975 -8.428090 7.943941 9.145726 -14.394159 0.000000 0.000000 0.000000 -0.357002 0.370849 -0.084007 0.430479 -6.030811 -0.997905 -0.339911 1.766357 -2.516633 44.194800 -42.160610 -32.673036 5.067508 -86.304563 4.493537 0.000000 0.000000 0.000000 -0.193125 0.678721 -0.499140 0.430498 0.557248 2.651423 7.553766 7.968205 -0.967740 -4.621106 1.748985 80.784103 -179.246649 54.764293 -179.839673 0.000000 0.000000 0.000000 
